<svg xmlns="http://www.w3.org/2000/svg" viewBox="0 0 64 64"><defs><style>.cls-1{fill:#70bdfb;stroke:#70bdfb;}.cls-1,.cls-2,.cls-3,.cls-6{stroke-linecap:round;stroke-linejoin:round;stroke-width:2px;}.cls-2{fill:#cfd8dc;stroke:#cfd8dc;}.cls-3{fill:#fff;opacity:0.2;}.cls-3,.cls-6{stroke:#fff;}.cls-4{fill:#4f4f4f;}.cls-5{fill:#ff4931;}.cls-6{fill:none;}</style></defs><title>drink</title><g id="drink"><polygon class="cls-1" points="46 60 20 60 16 4 50 4 46 60"/><polygon class="cls-2" points="19.7 56 20 60 46 60 46.3 56 19.7 56"/><polygon class="cls-2" points="16.89 16 49.11 16 50 4 16 4 16.89 16"/><polygon class="cls-3" points="45 4 41 60 46 60 50 4 45 4"/><circle class="cls-4" cx="26.5" cy="31.5" r="1.5" transform="translate(-14.51 27.96) rotate(-45)"/><circle class="cls-4" cx="39.5" cy="31.5" r="1.5" transform="translate(-10.7 37.16) rotate(-45)"/><path class="cls-4" d="M26,38.18c0-1.57,14-1.57,14,0v0C40,40.86,36.87,43,33,43s-7-2.14-7-4.79T26,38.18Z"/><ellipse class="cls-5" cx="32.83" cy="40" rx="3" ry="1"/><line class="cls-6" x1="21" y1="9" x2="22" y2="25"/></g></svg>