<?xml version="1.0" encoding="UTF-8" standalone="no" ?>
<!DOCTYPE svg PUBLIC "-//W3C//DTD SVG 1.1//EN" "http://www.w3.org/Graphics/SVG/1.1/DTD/svg11.dtd">
<svg xmlns="http://www.w3.org/2000/svg" xmlns:xlink="http://www.w3.org/1999/xlink" version="1.1" width="400" height="400" viewBox="0 0 400 400" xml:space="preserve">
<desc>Created with Fabric.js 3.6.2</desc>
<defs>
</defs>
<g transform="matrix(6.25 0 0 6.25 187.5 199.99)" id="Outline"  >
<path style="stroke: none; stroke-width: 1; stroke-dasharray: none; stroke-linecap: butt; stroke-dashoffset: 0; stroke-linejoin: miter; stroke-miterlimit: 4; fill: rgb(0,0,0); fill-rule: nonzero; opacity: 1;"  transform=" translate(-14, -16)" d="M 24 20.111 V 5 c 0 -2.757 -2.243 -5 -5 -5 s -5 2.243 -5 5 v 1.574 c -1.766 -3.31 -4.084 -6.042 -4.241 -6.225 C 9.473 0.015 9 -0.092 8.595 0.085 C 8.192 0.264 7.953 0.686 8.008 1.124 C 8.231 2.911 8.131 4.718 7.711 6.52 C 6.538 4.828 5.313 4 4 4 C 3.692 4 3.401 4.142 3.212 4.385 S 2.955 4.944 3.03 5.243 C 3.556 7.346 3.159 8.436 2.7 9.698 C 2.372 10.601 2 11.624 2 13 c 0 3.86 3.14 7 7 7 c 1.958 0 3.728 -0.81 5 -2.11 v 2.22 c -1.659 1.674 -2.344 4.036 -1.838 6.408 c 0.564 2.649 2.727 4.793 5.381 5.334 c 0.482 0.098 0.967 0.146 1.446 0.146 c 1.611 0 3.173 -0.545 4.434 -1.575 C 25.061 29.086 26 27.109 26 25 C 26 23.162 25.276 21.405 24 20.111 z M 9 18 c -2.757 0 -5 -2.243 -5 -5 c 0 -1.024 0.269 -1.763 0.58 -2.618 c 0.367 -1.008 0.77 -2.115 0.69 -3.701 c 0.508 0.5 1.126 1.348 1.836 2.767 c 0.178 0.355 0.54 0.571 0.947 0.551 C 8.45 9.978 8.797 9.724 8.937 9.351 c 0.656 -1.75 1.042 -3.519 1.153 -5.285 C 11.774 6.45 14 10.14 14 13 C 14 15.757 11.757 18 9 18 z M 22.157 28.875 c -1.168 0.954 -2.7 1.326 -4.215 1.017 c -1.887 -0.384 -3.424 -1.908 -3.825 -3.791 c -0.387 -1.813 0.191 -3.612 1.545 -4.812 C 15.877 21.099 16 20.826 16 20.54 V 5 c 0 -1.654 1.346 -3 3 -3 s 3 1.346 3 3 v 15.54 c 0 0.286 0.123 0.559 0.337 0.749 C 23.394 22.225 24 23.578 24 25 C 24 26.506 23.328 27.918 22.157 28.875 z" stroke-linecap="round" />
</g>
<g transform="matrix(6.25 0 0 6.25 218.75 206.25)" id="Outline"  >
<path style="stroke: none; stroke-width: 1; stroke-dasharray: none; stroke-linecap: butt; stroke-dashoffset: 0; stroke-linejoin: miter; stroke-miterlimit: 4; fill: rgb(0,0,0); fill-rule: nonzero; opacity: 1;"  transform=" translate(-19, -17)" d="M 20 22.184 V 6 h -2 v 16.184 c -1.161 0.414 -2 1.514 -2 2.816 c 0 1.654 1.346 3 3 3 s 3 -1.346 3 -3 C 22 23.698 21.161 22.598 20 22.184 z M 19 26 c -0.552 0 -1 -0.449 -1 -1 s 0.448 -1 1 -1 s 1 0.449 1 1 S 19.552 26 19 26 z" stroke-linecap="round" />
</g>
</svg>