<?xml version="1.0" encoding="UTF-8" standalone="no" ?>
<!DOCTYPE svg PUBLIC "-//W3C//DTD SVG 1.1//EN" "http://www.w3.org/Graphics/SVG/1.1/DTD/svg11.dtd">
<svg xmlns="http://www.w3.org/2000/svg" xmlns:xlink="http://www.w3.org/1999/xlink" version="1.1" width="400" height="400" viewBox="0 0 400 400" xml:space="preserve">
<desc>Created with Fabric.js 3.6.2</desc>
<defs>
</defs>
<g transform="matrix(3.13 0 0 3.13 200 200)" id="rect2317-3"  >
<rect style="stroke: none; stroke-width: 1; stroke-dasharray: none; stroke-linecap: butt; stroke-dashoffset: 0; stroke-linejoin: miter; stroke-miterlimit: 4; fill: none; fill-rule: nonzero; opacity: 1;"  x="-32" y="-31.999" rx="0" ry="0" width="64" height="63.998" />
</g>
<g transform="matrix(3.13 0 0 3.13 199.94 201.41)" id="path2082"  >
<path style="stroke: none; stroke-width: 1; stroke-dasharray: none; stroke-linecap: butt; stroke-dashoffset: 0; stroke-linejoin: miter; stroke-miterlimit: 4; fill: rgb(0,0,0); fill-rule: nonzero; opacity: 1;"  transform=" translate(-21.01, -28.03)" d="M 1.66 1.657 L 6.351 54.405 H 35.668 L 40.359 1.657 H 1.66 M 1.66 -0.6 h 38.7 a 2.254 2.254 0 0 1 2.248 2.452 L 37.916 54.6 a 2.255 2.255 0 0 1 -2.248 2.054 H 6.351 A 2.255 2.255 0 0 1 4.1 54.6 L -0.587 1.856 A 2.254 2.254 0 0 1 1.66 -0.6 Z" stroke-linecap="round" />
</g>
<g transform="matrix(3.13 0 0 3.13 200.42 229.92)" id="path2086"  >
<path style="stroke: none; stroke-width: 1; stroke-dasharray: none; stroke-linecap: butt; stroke-dashoffset: 0; stroke-linejoin: miter; stroke-miterlimit: 4; fill: rgb(0,0,0); fill-rule: nonzero; opacity: 1;"  transform=" translate(-15.38, -17.48)" d="M 0.259 4.024 S 3.932 1.573 10 2.723 S 16.114 5 21.689 5.635 S 30.5 4.023 30.5 4.023 L 28.012 32.538 H 2.55 Z" stroke-linecap="round" />
</g>
</svg>