<?xml version="1.0" encoding="UTF-8" standalone="no" ?>
<!DOCTYPE svg PUBLIC "-//W3C//DTD SVG 1.1//EN" "http://www.w3.org/Graphics/SVG/1.1/DTD/svg11.dtd">
<svg xmlns="http://www.w3.org/2000/svg" xmlns:xlink="http://www.w3.org/1999/xlink" version="1.1" width="400" height="400" viewBox="0 0 400 400" xml:space="preserve">
<desc>Created with Fabric.js 3.6.2</desc>
<defs>
</defs>
<g transform="matrix(4.17 0 0 4.17 200 200)" id="surface1"  >
<path style="stroke: none; stroke-width: 1; stroke-dasharray: none; stroke-linecap: butt; stroke-dashoffset: 0; stroke-linejoin: miter; stroke-miterlimit: 4; fill: rgb(100,181,246); fill-rule: nonzero; opacity: 1;"  transform=" translate(-24, -24)" d="M 37 31 c 0 7.2 -5.8 13 -13 13 s -13 -5.8 -13 -13 S 24 4 24 4 S 37 23.8 37 31 z" stroke-linecap="round" />
</g>
<g transform="matrix(4.17 0 0 4.17 187.5 241.67)" id="surface1"  >
<path style="stroke: none; stroke-width: 1; stroke-dasharray: none; stroke-linecap: butt; stroke-dashoffset: 0; stroke-linejoin: miter; stroke-miterlimit: 4; fill: rgb(187,222,251); fill-rule: nonzero; opacity: 1;"  transform=" translate(-21, -34)" d="M 24 39 c -4.4 0 -8 -3.6 -8 -8 c 0 -1.1 0.9 -2 2 -2 s 2 0.9 2 2 c 0 2.2 1.8 4 4 4 c 1.1 0 2 0.9 2 2 S 25.1 39 24 39 z" stroke-linecap="round" />
</g>
</svg>